<?xml version="1.0" standalone="no"?>
<!DOCTYPE svg PUBLIC "-//W3C//DTD SVG 20010904//EN"
 "http://www.w3.org/TR/2001/REC-SVG-20010904/DTD/svg10.dtd">
<svg version="1.0" xmlns="http://www.w3.org/2000/svg"
 width="116.000000pt" height="102.000000pt" viewBox="0 0 116.000000 102.000000"
 preserveAspectRatio="xMidYMid meet">

<g transform="translate(0.000000,102.000000) scale(0.100000,-0.100000)"
fill="#000000" stroke="none">
<path d="M527 891 c-26 -43 -47 -81 -47 -83 0 -3 -25 -45 -55 -94 -30 -49 -69
-116 -86 -149 -18 -33 -47 -84 -65 -112 -19 -29 -47 -79 -64 -110 -44 -83
-116 -203 -129 -216 -36 -36 -26 -37 494 -37 278 0 505 2 505 4 0 8 -43 80
-58 99 -8 9 -13 17 -9 17 3 0 -26 52 -64 116 -38 63 -69 117 -69 120 0 2 -17
33 -39 67 -21 34 -52 87 -68 117 -17 30 -57 100 -90 155 -33 55 -70 119 -82
143 -12 23 -23 42 -24 42 -2 0 -24 -35 -50 -79z m189 -205 c71 -124 147 -257
169 -295 94 -161 155 -269 155 -275 0 -3 -47 -6 -104 -6 l-105 0 -31 53 c-17
28 -48 81 -69 117 -112 194 -154 259 -162 255 -4 -3 -30 -45 -58 -94 -27 -49
-77 -135 -111 -192 -33 -57 -64 -111 -69 -119 -6 -12 -32 -16 -115 -18 -58 -1
-106 0 -106 4 0 7 78 145 215 379 48 83 113 194 144 248 96 168 102 177 110
173 4 -3 66 -106 137 -230z m-126 -206 c0 -8 81 -152 130 -230 36 -58 70 -121
70 -130 0 -6 -76 -10 -215 -10 -118 0 -215 4 -215 8 0 8 14 34 114 209 62 109
97 163 107 163 5 0 9 -4 9 -10z"/>
</g>
</svg>
